<svg id="svg" version="1.1" xmlns="http://www.w3.org/2000/svg" xmlns:xlink="http://www.w3.org/1999/xlink" width="16" height="16" viewBox="0, 0, 400,400"><g id="svgg"><path id="path0" d="M280.155 178.819 C 277.763 179.709,277.599 180.482,277.673 190.551 C 277.774 204.293,275.881 210.569,269.210 218.616 C 256.035 234.508,238.772 219.325,235.990 189.400 C 235.402 183.074,235.093 182.400,232.786 182.400 C 226.451 182.400,226.977 201.957,233.657 214.811 C 247.111 240.697,270.415 240.597,282.987 214.600 C 288.589 203.017,288.771 181.327,283.285 179.280 C 281.324 178.548,281.009 178.502,280.155 178.819 M113.955 180.600 C 110.365 182.551,108.953 200.367,111.632 209.914 C 118.721 235.177,141.763 243.689,158.427 227.200 C 170.663 215.093,176.592 186.400,166.858 186.400 C 164.051 186.400,163.107 188.195,161.775 196.068 C 158.901 213.060,151.836 223.563,141.921 225.584 C 129.205 228.175,116.679 209.582,117.814 189.800 C 118.356 180.351,117.624 178.606,113.955 180.600 M216.590 228.162 C 215.146 228.787,214.593 229.884,214.013 233.267 C 212.893 239.809,211.877 242.405,209.339 245.214 C 207.369 247.395,206.780 247.259,203.225 243.800 C 198.468 239.170,196.394 239.482,192.380 245.430 C 189.438 249.790,188.537 250.080,185.795 247.553 C 182.626 244.631,180.823 240.100,180.190 233.464 C 179.913 230.569,179.096 229.200,177.644 229.200 C 173.956 229.200,173.587 239.809,177.024 247.043 C 181.655 256.789,190.580 259.215,196.505 252.338 L 198.313 250.239 199.778 251.419 C 202.881 253.920,203.696 254.354,205.779 254.615 C 212.618 255.469,218.693 249.432,221.244 239.246 C 223.140 231.677,220.883 226.303,216.590 228.162 " stroke="none" fill="#fcfafa" fill-rule="evenodd"></path><path id="path1" d="M76.636 48.629 C 71.349 50.566,67.039 57.023,64.628 66.617 C 60.955 81.238,62.121 115.819,67.208 143.100 C 68.636 150.756,68.500 150.565,70.188 147.299 C 81.562 125.282,97.995 106.836,117.400 94.303 C 124.151 89.943,133.136 85.947,144.357 82.315 C 151.020 80.159,152.400 79.289,152.400 77.249 C 152.400 66.423,91.185 43.299,76.636 48.629 M307.200 48.430 C 280.234 52.986,245.162 69.422,245.206 77.480 C 245.218 79.597,245.692 79.865,254.600 82.782 C 269.830 87.769,282.706 94.754,292.966 103.595 C 306.451 115.214,317.605 129.329,327.028 146.697 C 329.029 150.385,328.935 150.443,329.946 144.900 C 339.284 93.710,336.199 56.628,321.963 48.951 C 320.383 48.099,311.098 47.771,307.200 48.430 M185.800 83.627 C 136.235 88.655,93.537 120.084,74.706 165.400 C 37.986 253.766,101.410 350.750,196.600 351.793 C 202.760 351.861,207.080 351.842,206.200 351.752 C 148.499 345.858,104.817 303.243,98.170 246.361 C 96.476 231.866,97.217 211.314,99.864 199.400 C 116.419 124.867,198.109 85.378,266.600 118.799 C 305.223 137.646,330.004 174.962,332.767 218.438 L 333.083 223.400 333.140 216.800 C 333.676 155.008,289.151 99.764,227.890 86.214 C 216.304 83.651,197.158 82.475,185.800 83.627 M215.400 145.992 C 174.322 148.666,139.840 177.191,129.798 216.808 L 128.739 220.986 129.869 221.930 C 142.489 232.459,157.512 220.451,161.435 196.699 C 162.907 187.789,164.687 185.028,168.060 186.425 C 172.220 188.148,173.031 194.265,170.453 204.461 C 163.926 230.273,145.635 242.224,127.538 232.499 C 126.939 232.178,126.714 239.797,127.144 245.837 C 133.370 333.293,243.207 366.188,296.623 296.593 C 311.335 277.426,319.073 245.563,314.262 223.970 L 313.778 221.800 312.143 224.000 C 300.840 239.211,279.687 244.283,261.437 236.160 C 259.656 235.367,257.255 234.555,256.100 234.354 C 240.568 231.654,226.872 210.269,228.097 190.630 C 228.684 181.227,235.087 178.529,235.956 187.319 C 236.378 191.580,236.603 191.942,236.957 188.931 C 238.429 176.399,248.087 164.055,261.058 158.124 C 265.147 156.255,265.147 156.308,261.100 154.437 C 246.414 147.646,231.715 144.929,215.400 145.992 M220.362 228.629 C 221.905 229.928,222.558 232.243,222.208 235.178 C 220.347 250.798,208.689 259.782,200.307 252.056 C 198.382 250.281,198.333 250.289,196.473 252.679 C 188.326 263.148,173.700 251.257,174.510 234.824 C 174.894 227.038,179.665 226.514,180.441 234.173 C 181.053 240.204,182.662 244.262,185.612 247.212 C 188.390 249.990,189.215 249.623,193.383 243.753 C 196.604 239.216,198.897 239.181,203.424 243.600 C 205.227 245.360,206.898 246.800,207.138 246.800 C 208.854 246.800,212.323 241.085,213.132 236.926 C 213.381 235.647,213.788 233.531,214.036 232.225 C 214.842 227.989,217.682 226.374,220.362 228.629 M353.600 261.431 C 346.790 262.640,342.852 264.049,338.694 266.765 C 329.429 272.815,324.009 281.107,320.367 294.800 C 310.113 333.345,305.555 337.748,281.074 332.760 L 276.855 331.900 273.665 333.542 C 270.727 335.055,264.570 337.662,259.866 339.384 C 257.607 340.211,257.622 340.234,261.800 342.352 C 278.082 350.608,302.309 350.133,314.929 341.309 C 324.501 334.617,328.244 326.391,332.818 302.000 C 336.045 284.793,339.112 278.142,345.647 274.171 C 355.469 268.205,373.200 271.003,373.200 278.520 C 373.200 282.436,370.716 283.304,358.719 283.581 C 348.673 283.813,348.096 283.934,348.541 285.706 C 350.470 293.393,373.033 294.019,379.575 286.567 C 382.806 282.888,383.631 276.700,381.478 272.315 C 378.197 265.634,363.108 259.743,353.600 261.431 " stroke="none" fill="#f47424" fill-rule="evenodd"></path><path id="path2" d="M98.575 108.900 L 97.400 110.200 98.700 109.025 C 99.912 107.930,100.184 107.600,99.875 107.600 C 99.806 107.600,99.221 108.185,98.575 108.900 M228.146 192.600 C 228.147 194.800,228.214 195.649,228.295 194.487 C 228.376 193.324,228.376 191.524,228.293 190.487 C 228.211 189.449,228.145 190.400,228.146 192.600 M236.093 191.200 C 236.093 191.970,236.175 192.285,236.276 191.900 C 236.376 191.515,236.376 190.885,236.276 190.500 C 236.175 190.115,236.093 190.430,236.093 191.200 M171.693 196.400 C 171.693 197.170,171.775 197.485,171.876 197.100 C 171.976 196.715,171.976 196.085,171.876 195.700 C 171.775 195.315,171.693 195.630,171.693 196.400 M138.900 225.876 C 139.285 225.976,139.915 225.976,140.300 225.876 C 140.685 225.775,140.370 225.693,139.600 225.693 C 138.830 225.693,138.515 225.775,138.900 225.876 M158.581 227.300 L 157.000 229.000 158.700 227.419 C 160.281 225.948,160.584 225.600,160.281 225.600 C 160.216 225.600,159.451 226.365,158.581 227.300 M242.800 227.400 C 243.546 228.170,244.247 228.800,244.357 228.800 C 244.467 228.800,243.946 228.170,243.200 227.400 C 242.454 226.630,241.753 226.000,241.643 226.000 C 241.533 226.000,242.054 226.630,242.800 227.400 M222.109 233.600 C 222.109 234.590,222.187 234.995,222.282 234.500 C 222.378 234.005,222.378 233.195,222.282 232.700 C 222.187 232.205,222.109 232.610,222.109 233.600 M174.542 236.200 C 174.541 238.180,174.608 239.040,174.692 238.112 C 174.776 237.184,174.777 235.564,174.695 234.512 C 174.612 233.460,174.543 234.220,174.542 236.200 M198.600 240.690 C 199.946 240.822,200.677 241.303,203.200 243.723 L 206.200 246.600 203.210 243.500 C 200.395 240.582,200.126 240.404,198.610 240.467 L 197.000 240.534 198.600 240.690 " stroke="none" fill="#f8a670" fill-rule="evenodd"></path></g></svg>